<svg width="309" height="98" viewBox="0 0 309 98" fill="none" xmlns="http://www.w3.org/2000/svg">
<path d="M0 53.9767V5.96693H9.22769L29.749 39.8481H24.8597L45.0366 5.96693H54.1955L54.3332 53.9767H43.866L43.7971 21.9473H45.7253L29.6112 48.9014H24.5842L8.12588 21.9473H10.4672V53.9767H0Z" fill="#333333"/>
<path d="M65.0124 53.9767V17.0778H75.7551V53.9767H65.0124ZM70.3837 11.9339C68.4097 11.9339 66.8028 11.3623 65.5633 10.2192C64.3238 9.07614 63.704 7.65871 63.704 5.96693C63.704 4.27516 64.3238 2.85773 65.5633 1.71464C66.8028 0.571546 68.4097 0 70.3837 0C72.3578 0 73.9646 0.548684 75.2042 1.64605C76.4437 2.6977 77.0635 4.0694 77.0635 5.76118C77.0635 7.5444 76.4437 9.03042 75.2042 10.2192C74.0105 11.3623 72.4037 11.9339 70.3837 11.9339Z" fill="#333333"/>
<path d="M100.875 54.5254C96.5138 54.5254 93.1165 53.428 90.6834 51.2333C88.2502 48.9929 87.0336 45.6779 87.0336 41.2884V8.91611H97.7763V41.1513C97.7763 42.7059 98.1895 43.9175 99.0158 44.7863C99.8422 45.6093 100.967 46.0208 102.39 46.0208C104.089 46.0208 105.535 45.5636 106.729 44.6491L109.621 52.1935C108.519 52.9708 107.188 53.5652 105.627 53.9767C104.112 54.3425 102.528 54.5254 100.875 54.5254ZM81.3179 26.131V17.9008H107.004V26.131H81.3179Z" fill="#333333"/>
<path d="M115.651 53.9767V17.0778H125.912V27.5028L124.466 24.485C125.568 21.8788 127.335 19.9126 129.768 18.5867C132.201 17.2149 135.162 16.5291 138.652 16.5291V26.4054C138.192 26.3597 137.779 26.3368 137.412 26.3368C137.045 26.2911 136.655 26.2682 136.241 26.2682C133.303 26.2682 130.916 27.1141 129.08 28.8059C127.289 30.4519 126.394 33.0353 126.394 36.556V53.9767H115.651Z" fill="#333333"/>
<path d="M165.343 53.9767V46.7753L164.654 45.1978V32.3037C164.654 30.0176 163.943 28.2343 162.52 26.9541C161.142 25.6738 159.008 25.0337 156.115 25.0337C154.141 25.0337 152.19 25.3537 150.262 25.9939C148.38 26.5883 146.773 27.4113 145.442 28.463L141.585 20.9871C143.605 19.5697 146.038 18.4723 148.885 17.695C151.731 16.9177 154.623 16.5291 157.562 16.5291C163.208 16.5291 167.593 17.8551 170.714 20.507C173.836 23.159 175.397 27.297 175.397 32.921V53.9767H165.343ZM154.049 54.5254C151.157 54.5254 148.678 54.0453 146.612 53.0851C144.546 52.0792 142.962 50.7304 141.861 49.0386C140.759 47.3468 140.208 45.4493 140.208 43.346C140.208 41.1513 140.736 39.2309 141.792 37.5848C142.894 35.9388 144.615 34.6585 146.957 33.744C149.298 32.7838 152.351 32.3037 156.115 32.3037H165.963V38.545H157.286C154.761 38.545 153.017 38.9565 152.052 39.7795C151.134 40.6026 150.675 41.6314 150.675 42.8659C150.675 44.2376 151.203 45.335 152.259 46.158C153.361 46.9353 154.853 47.3239 156.735 47.3239C158.526 47.3239 160.132 46.9124 161.556 46.0894C162.979 45.2207 164.012 43.9633 164.654 42.3172L166.307 47.2554C165.527 49.633 164.104 51.4391 162.038 52.6736C159.972 53.9081 157.309 54.5254 154.049 54.5254Z" fill="#333333"/>
<path d="M54.0233 89.8555C51.6131 89.8555 49.3033 89.5411 47.0939 88.9124C44.8846 88.2551 43.1056 87.4121 41.757 86.3833L44.1242 81.1537C45.4154 82.0682 46.9361 82.8255 48.6864 83.4256C50.4654 83.9971 52.2587 84.2829 54.0664 84.2829C55.4436 84.2829 56.5483 84.1543 57.3804 83.8971C58.2412 83.6113 58.8724 83.2255 59.2741 82.7397C59.6758 82.2539 59.8767 81.6967 59.8767 81.068C59.8767 80.2678 59.5611 79.6391 58.9298 79.1819C58.2986 78.6961 57.4665 78.3103 56.4335 78.0245C55.4006 77.7101 54.2529 77.4244 52.9904 77.1672C51.7566 76.8814 50.5084 76.5385 49.2459 76.1384C48.0121 75.7383 46.8787 75.2239 45.8458 74.5952C44.8128 73.9665 43.9664 73.1378 43.3064 72.109C42.6752 71.0802 42.3596 69.7657 42.3596 68.1653C42.3596 66.4507 42.8187 64.8932 43.7368 63.493C44.6837 62.0641 46.0897 60.9353 47.9547 60.1065C49.8485 59.2492 52.2156 58.8206 55.0563 58.8206C56.95 58.8206 58.8151 59.0492 60.6514 59.5064C62.4878 59.9351 64.1089 60.5924 65.5149 61.4783L63.3629 66.7508C61.9569 65.9506 60.551 65.3648 59.145 64.9933C57.7391 64.5932 56.3618 64.3931 55.0132 64.3931C53.6646 64.3931 52.56 64.5503 51.6992 64.8647C50.8384 65.179 50.2215 65.5934 49.8485 66.1078C49.4755 66.5936 49.289 67.1651 49.289 67.8224C49.289 68.594 49.6046 69.2227 50.2358 69.7085C50.8671 70.1657 51.6992 70.5373 52.7321 70.823C53.7651 71.1088 54.8984 71.3946 56.1322 71.6803C57.3947 71.9661 58.6429 72.2948 59.8767 72.6663C61.1392 73.0378 62.2869 73.5379 63.3199 74.1666C64.3528 74.7953 65.1849 75.624 65.8162 76.6528C66.4761 77.6816 66.8061 78.9818 66.8061 80.5536C66.8061 82.2396 66.3326 83.7828 65.3858 85.1831C64.4389 86.5834 63.0186 87.7122 61.1248 88.5695C59.2598 89.4268 56.8926 89.8555 54.0233 89.8555Z" fill="#333333"/>
<path d="M85.3 89.3411V84.8402L84.8696 83.8542V75.7955C84.8696 74.3666 84.4248 73.2521 83.5354 72.4519C82.6746 71.6518 81.3403 71.2517 79.5327 71.2517C78.2989 71.2517 77.0794 71.4517 75.8743 71.8518C74.6979 72.2233 73.6936 72.7377 72.8615 73.395L70.4513 68.7226C71.7138 67.8367 73.2346 67.1508 75.0135 66.665C76.7925 66.1792 78.6002 65.9363 80.4365 65.9363C83.9658 65.9363 86.7059 66.7651 88.6571 68.4225C90.6082 70.08 91.5838 72.6663 91.5838 76.1813V89.3411H85.3ZM78.2415 89.684C76.4338 89.684 74.8844 89.384 73.5932 88.7838C72.302 88.1551 71.3121 87.3121 70.6235 86.2547C69.9348 85.1974 69.5905 84.0114 69.5905 82.6969C69.5905 81.3252 69.9205 80.1249 70.5804 79.0961C71.2691 78.0674 72.3451 77.2672 73.8084 76.6956C75.2718 76.0955 77.1798 75.7955 79.5327 75.7955H85.6873V79.6963H80.2644C78.6862 79.6963 77.5959 79.9535 76.9933 80.4678C76.4195 80.9822 76.1326 81.6252 76.1326 82.3968C76.1326 83.2541 76.4625 83.94 77.1225 84.4544C77.8111 84.9402 78.7436 85.1831 79.92 85.1831C81.0391 85.1831 82.0433 84.9259 82.9328 84.4115C83.8223 83.8685 84.4679 83.0827 84.8696 82.0539L85.9025 85.1402C85.4148 86.6262 84.5253 87.755 83.2341 88.5266C81.9429 89.2982 80.2787 89.684 78.2415 89.684Z" fill="#333333"/>
<path d="M127.315 65.9363C129.151 65.9363 130.772 66.3078 132.178 67.0508C133.613 67.7653 134.732 68.8798 135.535 70.3944C136.367 71.8804 136.783 73.7951 136.783 76.1384V89.3411H130.069V77.1672C130.069 75.3097 129.682 73.9379 128.907 73.052C128.132 72.1661 127.042 71.7232 125.636 71.7232C124.661 71.7232 123.785 71.9518 123.011 72.4091C122.236 72.8377 121.633 73.495 121.203 74.3809C120.773 75.2668 120.557 76.3956 120.557 77.7673V89.3411H113.843V77.1672C113.843 75.3097 113.456 73.9379 112.681 73.052C111.935 72.1661 110.859 71.7232 109.453 71.7232C108.478 71.7232 107.603 71.9518 106.828 72.4091C106.053 72.8377 105.451 73.495 105.02 74.3809C104.59 75.2668 104.375 76.3956 104.375 77.7673V89.3411H97.6604V66.2792H104.073V72.5805L102.868 70.7373C103.672 69.1655 104.805 67.9796 106.268 67.1794C107.76 66.3507 109.453 65.9363 111.347 65.9363C113.47 65.9363 115.321 66.4793 116.899 67.5652C118.506 68.6226 119.568 70.2515 120.084 72.4519L117.717 71.8089C118.492 70.0086 119.725 68.5797 121.418 67.5223C123.14 66.465 125.105 65.9363 127.315 65.9363Z" fill="#333333"/>
<path d="M156.488 89.684C154.537 89.684 152.83 89.2554 151.366 88.398C149.903 87.5407 148.755 86.2405 147.923 84.4972C147.12 82.7255 146.718 80.4964 146.718 77.8102C146.718 75.0953 147.106 72.8663 147.88 71.1231C148.655 69.3799 149.774 68.0796 151.237 67.2223C152.701 66.365 154.451 65.9363 156.488 65.9363C158.669 65.9363 160.62 66.4364 162.342 67.4366C164.092 68.4082 165.469 69.78 166.473 71.5517C167.506 73.3235 168.023 75.4097 168.023 77.8102C168.023 80.2392 167.506 82.3397 166.473 84.1114C165.469 85.8832 164.092 87.2549 162.342 88.2266C160.62 89.1982 158.669 89.684 156.488 89.684ZM142.802 97.6571V66.2792H149.214V70.9945L149.085 77.853L149.516 84.6687V97.6571H142.802ZM155.326 84.1972C156.445 84.1972 157.435 83.94 158.296 83.4256C159.185 82.9112 159.888 82.1825 160.405 81.2394C160.95 80.2678 161.223 79.1247 161.223 77.8102C161.223 76.467 160.95 75.3239 160.405 74.3809C159.888 73.4378 159.185 72.7091 158.296 72.1947C157.435 71.6803 156.445 71.4231 155.326 71.4231C154.207 71.4231 153.203 71.6803 152.313 72.1947C151.424 72.7091 150.721 73.4378 150.204 74.3809C149.688 75.3239 149.43 76.467 149.43 77.8102C149.43 79.1247 149.688 80.2678 150.204 81.2394C150.721 82.1825 151.424 82.9112 152.313 83.4256C153.203 83.94 154.207 84.1972 155.326 84.1972Z" fill="#333333"/>
<path d="M186.342 89.3411V84.8402L185.912 83.8542V75.7955C185.912 74.3666 185.467 73.2521 184.578 72.4519C183.717 71.6518 182.383 71.2517 180.575 71.2517C179.341 71.2517 178.122 71.4517 176.917 71.8518C175.74 72.2233 174.736 72.7377 173.904 73.395L171.494 68.7226C172.756 67.8367 174.277 67.1508 176.056 66.665C177.835 66.1792 179.642 65.9363 181.479 65.9363C185.008 65.9363 187.748 66.7651 189.699 68.4225C191.65 70.08 192.626 72.6663 192.626 76.1813V89.3411H186.342ZM179.284 89.684C177.476 89.684 175.927 89.384 174.635 88.7838C173.344 88.1551 172.354 87.3121 171.666 86.2547C170.977 85.1974 170.633 84.0114 170.633 82.6969C170.633 81.3252 170.963 80.1249 171.623 79.0961C172.311 78.0674 173.387 77.2672 174.851 76.6956C176.314 76.0955 178.222 75.7955 180.575 75.7955H186.73V79.6963H181.307C179.728 79.6963 178.638 79.9535 178.036 80.4678C177.462 80.9822 177.175 81.6252 177.175 82.3968C177.175 83.2541 177.505 83.94 178.165 84.4544C178.853 84.9402 179.786 85.1831 180.962 85.1831C182.081 85.1831 183.086 84.9259 183.975 84.4115C184.864 83.8685 185.51 83.0827 185.912 82.0539L186.945 85.1402C186.457 86.6262 185.567 87.755 184.276 88.5266C182.985 89.2982 181.321 89.684 179.284 89.684Z" fill="#333333"/>
<path d="M212.777 65.9363C214.613 65.9363 216.248 66.3078 217.683 67.0508C219.146 67.7653 220.294 68.8798 221.126 70.3944C221.958 71.8804 222.374 73.7951 222.374 76.1384V89.3411H215.66V77.1672C215.66 75.3097 215.244 73.9379 214.412 73.052C213.609 72.1661 212.461 71.7232 210.969 71.7232C209.907 71.7232 208.946 71.9518 208.085 72.4091C207.253 72.8377 206.593 73.5093 206.105 74.4238C205.646 75.3382 205.417 76.5099 205.417 77.9388V89.3411H198.703V66.2792H205.116V72.6663L203.91 70.7373C204.743 69.1941 205.933 68.0082 207.483 67.1794C209.032 66.3507 210.797 65.9363 212.777 65.9363Z" fill="#333333"/>
<path d="M239.518 98C237.337 98 235.228 97.7285 233.191 97.1855C231.182 96.6712 229.504 95.8853 228.155 94.8279L230.824 90.0269C231.799 90.8271 233.033 91.4558 234.525 91.913C236.046 92.3989 237.538 92.6418 239.001 92.6418C241.383 92.6418 243.104 92.1131 244.166 91.0557C245.256 89.9984 245.801 88.4266 245.801 86.3405V82.8683L246.232 77.0814L246.146 71.2517V66.2792H252.516V85.4832C252.516 89.7697 251.397 92.9275 249.158 94.9565C246.92 96.9855 243.707 98 239.518 98ZM238.485 88.2266C236.333 88.2266 234.382 87.7693 232.631 86.8549C230.91 85.9118 229.518 84.6115 228.456 82.9541C227.423 81.268 226.907 79.3105 226.907 77.0814C226.907 74.8238 227.423 72.8663 228.456 71.2088C229.518 69.5228 230.91 68.2225 232.631 67.308C234.382 66.3935 236.333 65.9363 238.485 65.9363C240.436 65.9363 242.157 66.3364 243.649 67.1366C245.141 67.9081 246.304 69.1227 247.136 70.7802C247.968 72.4091 248.384 74.5095 248.384 77.0814C248.384 79.6248 247.968 81.7252 247.136 83.3827C246.304 85.0116 245.141 86.2262 243.649 87.0263C242.157 87.8265 240.436 88.2266 238.485 88.2266ZM239.819 82.7397C240.995 82.7397 242.043 82.5111 242.961 82.0539C243.879 81.5681 244.596 80.8965 245.113 80.0392C245.629 79.1819 245.887 78.196 245.887 77.0814C245.887 75.9383 245.629 74.9524 245.113 74.1237C244.596 73.2664 243.879 72.6091 242.961 72.1519C242.043 71.6661 240.995 71.4231 239.819 71.4231C238.642 71.4231 237.595 71.6661 236.677 72.1519C235.759 72.6091 235.027 73.2664 234.482 74.1237C233.965 74.9524 233.707 75.9383 233.707 77.0814C233.707 78.196 233.965 79.1819 234.482 80.0392C235.027 80.8965 235.759 81.5681 236.677 82.0539C237.595 82.5111 238.642 82.7397 239.819 82.7397Z" fill="#333333"/>
<path d="M272.968 89.3411V84.8402L272.537 83.8542V75.7955C272.537 74.3666 272.093 73.2521 271.203 72.4519C270.342 71.6518 269.008 71.2517 267.2 71.2517C265.967 71.2517 264.747 71.4517 263.542 71.8518C262.366 72.2233 261.361 72.7377 260.529 73.395L258.119 68.7226C259.382 67.8367 260.902 67.1508 262.681 66.665C264.46 66.1792 266.268 65.9363 268.104 65.9363C271.634 65.9363 274.374 66.7651 276.325 68.4225C278.276 70.08 279.252 72.6663 279.252 76.1813V89.3411H272.968ZM265.909 89.684C264.102 89.684 262.552 89.384 261.261 88.7838C259.97 88.1551 258.98 87.3121 258.291 86.2547C257.603 85.1974 257.258 84.0114 257.258 82.6969C257.258 81.3252 257.588 80.1249 258.248 79.0961C258.937 78.0674 260.013 77.2672 261.476 76.6956C262.94 76.0955 264.848 75.7955 267.2 75.7955H273.355V79.6963H267.932C266.354 79.6963 265.264 79.9535 264.661 80.4678C264.087 80.9822 263.8 81.6252 263.8 82.3968C263.8 83.2541 264.13 83.94 264.79 84.4544C265.479 84.9402 266.411 85.1831 267.588 85.1831C268.707 85.1831 269.711 84.9259 270.601 84.4115C271.49 83.8685 272.136 83.0827 272.537 82.0539L273.57 85.1402C273.083 86.6262 272.193 87.755 270.902 88.5266C269.611 89.2982 267.946 89.684 265.909 89.684Z" fill="#333333"/>
<path d="M299.402 65.9363C301.239 65.9363 302.874 66.3078 304.309 67.0508C305.772 67.7653 306.92 68.8798 307.752 70.3944C308.584 71.8804 309 73.7951 309 76.1384V89.3411H302.286V77.1672C302.286 75.3097 301.87 73.9379 301.038 73.052C300.234 72.1661 299.087 71.7232 297.594 71.7232C296.533 71.7232 295.572 71.9518 294.711 72.4091C293.879 72.8377 293.219 73.5093 292.731 74.4238C292.272 75.3382 292.042 76.5099 292.042 77.9388V89.3411H285.328V66.2792H291.741V72.6663L290.536 70.7373C291.368 69.1941 292.559 68.0082 294.108 67.1794C295.658 66.3507 297.422 65.9363 299.402 65.9363Z" fill="#333333"/>
</svg>
